<svg xmlns="http://www.w3.org/2000/svg">
<symbol viewBox="0 0 39 37" id="icon-house">
    <path d="M15.4 33.22h8.35V21.06H15.4v12.16Zm6.84-1.48h-5.32v-9.2h5.27v9.2h.05Z" fill="#81B3D2"/>
    <path d="m37.9 20.04 1.1-1.07-5.17-5.03V.2h-7.2v6.72L19.47 0 0 19.03l1.1 1.06 4.07-3.96v19.23H3.13v1.47H36.5v-1.47h-2.66V16.08l4.07 3.96ZM28.14 1.73h4.13v10.73l-4.13-4.02V1.73Zm4.18 33.57H6.73V14.6L19.47 2.14l12.8 12.46v20.7h.05Z" fill="#81B3D2"/>
    <path d="M15.56 13.84a4.01 4.01 0 0 0 4.02 3.96 4.03 4.03 0 0 0 4.07-3.96 3.98 3.98 0 0 0-4.07-3.92 3.94 3.94 0 0 0-4.02 3.92Zm4.02-2.55a2.59 2.59 0 0 1 2.6 2.55 2.58 2.58 0 0 1-2.6 2.54 2.59 2.59 0 0 1-2.61-2.54c0-1.38 1.2-2.55 2.6-2.55ZM10.39 21.06H8.82v1.99h1.57v-1.99ZM13.47 21.06H11.9v1.99h1.57v-1.99ZM10.39 24.11H8.82v1.99h1.57V24.1ZM13.47 24.11H11.9v1.99h1.57V24.1ZM27.04 21.06h-1.56v1.99h1.56v-1.99ZM30.18 21.06H28.6v1.99h1.57v-1.99ZM27.04 24.11h-1.56v1.99h1.56V24.1ZM30.18 24.11H28.6v1.99h1.57V24.1Z" fill="#81B3D2"/>
</symbol>
<symbol viewBox="0 0 40 35" id="icon-food">
<path d="M37.74 23.3H2.26A2.23 2.23 0 0 0 0 25.48v1.77c0 1.17 1 2.13 2.26 2.13h.52v.5a5.12 5.12 0 0 0 5.2 5.02h24.04c2.89 0 5.2-2.28 5.2-5.01v-.51h.52c1.21 0 2.26-.96 2.26-2.18v-1.77c0-1.12-1-2.13-2.26-2.13Zm-2.04 6.59c0 1.92-1.63 3.49-3.63 3.49H7.93c-2 0-3.63-1.57-3.63-3.5v-.5h31.4v.5Zm2.73-2.69c0 .36-.32.66-.69.66H2.26a.68.68 0 0 1-.69-.66v-1.77c0-.3.32-.61.69-.61H37.8c.36 0 .68.3.68.66v1.72h-.05ZM8.5 19.2l2.84 2.02 2.89-2.02 2.88 2.02L20 19.2l2.83 2.02 2.9-2.02 2.88 2.02 2.89-2.02 2.88 2.02 3.31-2.38-.9-1.21-2.4 1.67-2.9-2.03-2.88 2.03-2.89-2.03-2.89 2.03L20 17.27l-2.89 2.03-2.88-2.03-2.9 2.03-2.83-2.03-2.88 2.03-2.42-1.67-.94 1.21 3.36 2.38L8.5 19.2ZM37.22 15.75c0-.3.05-1.31 0-1.52C36.85 6.33 29.29 0 20 0 10.7 0 3.1 6.33 2.73 14.23v1.52h34.49ZM20 1.52c8.4 0 15.33 5.67 15.64 12.71H4.3C4.67 7.2 11.6 1.52 20 1.52Z" fill="#81B3D2"/>
<path d="M20 8.61c.58 0 1.05-.45 1.05-1.01S20.58 6.58 20 6.58c-.58 0-1.05.46-1.05 1.02S19.42 8.6 20 8.6ZM15.8 6.13c.58 0 1.05-.45 1.05-1.01S16.38 4.1 15.8 4.1c-.58 0-1.05.46-1.05 1.02s.47 1 1.05 1ZM24.2 6.13c.58 0 1.05-.45 1.05-1.01S24.78 4.1 24.2 4.1c-.58 0-1.05.46-1.05 1.02s.47 1 1.05 1Z" fill="#81B3D2"/>
</symbol>
<symbol viewBox="0 0 64 75" id="icon-presents">
<path d="M61.16 22.12h-24.8c13.82-6.8 14.94-11.1 14.43-13.5-1.11-3.9-5.69-6.9-9.95-5.3-5.59 2.1-7.11 10.3-8.64 16.2-1.93-6-3.76-13.6-8.12-17.5a7.47 7.47 0 0 0-5.8-2c-4.06.4-9.85 5.3-7.41 10.8 2.23 5.3 9.65 8.7 14.63 11.4H2.84A2.82 2.82 0 0 0 0 25.02v11.2c0 1.6 1.32 2.8 2.84 2.8h.3V75h57.91V39.01h.1c1.63 0 2.85-1.3 2.85-2.8v-11.2a2.9 2.9 0 0 0-2.84-2.9Zm-18.7-16.3c2.14-.3 4.98 1.3 5.29 3.2.4 2.7-3.36 5.2-5.08 6.3-2.54 1.7-4.98 2.6-7.32 4 .82-3.7 2.54-12.9 7.11-13.5Zm-22.96 9.8c-2.23-1.5-6.5-4.4-6.4-7.7.1-3.6 5.8-6.5 8.84-3.8 3.86 3.3 5.7 11 7.11 16.4-3.25-1.6-6.3-2.8-9.55-4.9Zm6 56.38H6.1V39.01h19.4v33Zm0-35.99H3.05v-10.9H25.5v10.9Zm10.16 36h-7.22V25.1h7.22v46.9ZM58 72H38.7V39h19.4v33H58Zm2.94-36H38.7v-10.9h22.25v10.9Z" fill="#81B3D2"/>
</symbol>
  <symbol viewBox="0 0 23 21" id="icon-like">
    <path d="m12.96 3.78-.62 3.05-.63 2.62h9.09v2.2l-3.03 7.25h-9.4V8.4l4.6-4.62ZM2.1 10.5v8.4-8.4ZM13.8 0 6.9 6.93c-.42.32-.63.84-.63 1.47v10.5c0 1.16.94 2.1 2.1 2.1h9.4c.84 0 1.57-.52 1.88-1.26l3.14-7.45c.1-.21.1-.53.1-.74v-2.1H23a2.1 2.1 0 0 0-2.1-2.1h-6.58l1.05-4.83v-.31c0-.43-.21-.84-.42-1.16L13.8 0ZM4.18 8.4H0V21h4.18V8.4Z"/>
  </symbol>
</svg>
